# xmcd CD database file
#
# Track frame offsets:
#	150
#	21660
#	40793
#	60622
#	81663
#	99031
#	118595
#	137663
#	158054
#	179007
#
# Disc length: 2650 seconds
#
# Revision: 0
# Processed by: cddbd v1.5.1PL2 Copyright (c) Steve Scherf et al.
# Submitted via: CDex 1.50beta10
#
DISCID=840a580a
DTITLE=Celia Cruz - La Negra Tiene Tumbao
DYEAR=2001
DGENRE=Salsa
TTITLE0=La Negra Tiene Tumbao
TTITLE1=Pa Arriba No va
TTITLE2=Hay Que Empezar Otra Vez
TTITLE3=Tararea Kumbayea
TTITLE4=Corazon De Rumba
TTITLE5=Dejenme Vivir
TTITLE6=Qué Culpa Tengo Yo
TTITLE7=Mi Mercancia
TTITLE8=Taita Bilongo
TTITLE9=Sin Clave No Hay Son
EXTD=YEAR: 2001
EXTT0=
EXTT1=
EXTT2=
EXTT3=
EXTT4=
EXTT5=
EXTT6=
EXTT7=
EXTT8=
EXTT9=
PLAYORDER=
